<?xml version="1.0" encoding="iso-8859-1"?>
<!-- Generator: Adobe Illustrator 19.0.0, SVG Export Plug-In . SVG Version: 6.00 Build 0)  -->
<svg version="1.1" id="Layer_1" xmlns="http://www.w3.org/2000/svg" xmlns:xlink="http://www.w3.org/1999/xlink" x="0px" y="0px"
	 viewBox="0 0 512 512" style="enable-background:new 0 0 512 512;" xml:space="preserve">
<path style="fill:#E23A2D;" d="M188.933,203.409l37.966-157.721l3.958-16.436c-1.183,0.368-2.376,0.723-3.589,1.049
	c-19.292,5.184-38.826,3.592-58.06-4.737c-40.336-17.47-74.964-14.106-96.911-8.208c-11.909,3.201-21.47,7.466-28.157,11.006
	l5.288,19.676l44.543,165.737c5.072-3.029,14.798-8.099,27.986-11.644C143.939,196.222,166.4,196.666,188.933,203.409z"/>
<path style="fill:#C9231B;" d="M188.933,203.409l37.966-157.721l3.958-16.436c-1.183,0.368-2.376,0.723-3.589,1.049
	c-19.292,5.184-38.826,3.592-58.06-4.737c-40.336-17.47-74.964-14.106-96.911-8.208c-11.909,3.201-21.47,7.466-28.157,11.006
	l5.288,19.676l44.543,165.737c5.072-3.029,14.798-8.099,27.986-11.644C143.939,196.222,166.4,196.666,188.933,203.409z"/>
<path style="fill:#E23A2D;" d="M169.209,25.563c-9.645-4.177-18.96-7.152-27.858-9.198c-6.024,18.532-9.294,38.306-9.294,58.847
	c0,48.226,17.96,92.252,47.545,125.776c3.108,0.69,6.219,1.489,9.331,2.422l37.966-157.721l3.958-16.436
	c-1.183,0.368-2.376,0.723-3.589,1.049C207.976,35.484,188.441,33.892,169.209,25.563z"/>
<path style="fill:#F48B19;" d="M188.933,203.409l16.354-67.936l-4.205-15.648c-2.437-0.838-4.87-1.78-7.299-2.831
	c-40.337-17.471-74.965-14.106-96.911-8.207c-11.91,3.2-21.47,7.466-28.158,11.003l5.288,19.679l19.97,74.304
	c5.072-3.029,14.798-8.099,27.986-11.644C143.939,196.222,166.4,196.666,188.933,203.409z"/>
<g>
	<path style="fill:#F7AC16;" d="M193.782,116.994c-21.91-9.49-42.129-12.825-59.553-12.953c5.605,36.86,21.8,70.234,45.372,96.945
		c3.108,0.69,6.219,1.489,9.331,2.422l16.354-67.936l-4.205-15.648C198.644,118.988,196.211,118.046,193.782,116.994z"/>
	<path style="fill:#F7AC16;" d="M208.522,122.03l18.377-76.343l3.958-16.436c-1.183,0.368-2.376,0.723-3.589,1.049
		c-16.858,4.53-33.897,3.884-50.761-1.907l24.573,91.433C203.558,120.676,206.038,121.402,208.522,122.03z"/>
</g>
<path style="fill:#ADACAC;" d="M122.239,480.476l5.869-24.382l14.642-60.827L49.429,48.038l-6.508-24.218
	C39.788,12.174,27.814,5.272,16.171,8.401C4.525,11.531-2.376,23.507,0.754,35.152l6.509,24.217l109.563,407.663l4.816,17.92
	C121.686,483.471,121.879,481.973,122.239,480.476z"/>
<path style="fill:#939393;" d="M28.028,52.622l-6.509-24.217c-1.991-7.412,0.092-14.946,4.861-20.26
	c-3.273-0.7-6.754-0.673-10.209,0.256C4.525,11.531-2.376,23.507,0.754,35.152l6.509,24.217l109.563,407.663l4.816,17.92
	c0.045-1.48,0.237-2.979,0.598-4.476l5.869-24.382l3.948-16.401L28.028,52.622z"/>
<path style="fill:#BABABA;" d="M258.064,5.191c-11.724-2.823-23.513,4.392-26.334,16.117l-5.87,24.38l-98.791,410.407l-5.868,24.382
	c-2.822,11.721,4.392,23.514,16.115,26.334c11.723,2.823,23.513-4.392,26.333-16.114l5.87-24.383l98.79-410.406l5.87-24.38
	C277.001,19.8,269.787,8.014,258.064,5.191z"/>
<path style="fill:#E23A2D;" d="M508.351,121.396c-2.983-2.55-7.144-3.22-10.774-1.727c-0.314,0.13-31.83,12.834-65.647,4.695
	c-19.423-4.677-35.816-15.419-48.72-31.934c-27.065-34.638-59.084-48.246-81.178-53.565c-11.988-2.886-22.426-3.715-29.992-3.804
	l-4.768,19.807L227.109,221.72c5.903-0.233,16.87-0.034,30.146,3.161c27.433,6.604,50.852,22.119,69.603,46.116
	c15.884,20.324,36.169,33.575,60.295,39.382c40.332,9.708,76.949-5.051,78.487-5.686c3.1-1.275,5.4-3.958,6.185-7.216
	l39.886-165.701C512.628,127.96,511.329,123.949,508.351,121.396z"/>
<path style="fill:#F43F37;" d="M508.351,121.396c-2.983-2.55-7.144-3.22-10.774-1.727c-0.314,0.13-31.83,12.834-65.647,4.695
	c-19.423-4.677-35.816-15.419-48.72-31.934c-8.502-10.88-17.491-19.684-26.509-26.808c-27.935,33.103-44.78,75.868-44.78,122.572
	c0,34.164,9.014,66.218,24.785,93.928c14.14,14.1,31.048,23.59,50.445,28.259c40.332,9.708,76.949-5.051,78.487-5.686
	c3.1-1.275,5.4-3.958,6.185-7.216l39.886-165.701C512.628,127.96,511.329,123.949,508.351,121.396z"/>
<path style="fill:#F48B19;" d="M366.109,190.452c-1.74-1.9-3.427-3.891-5.056-5.977c-27.067-34.635-59.084-48.246-81.179-53.563
	c-11.988-2.888-22.426-3.715-29.991-3.806l-4.768,19.81l-18.007,74.804c5.903-0.233,16.87-0.034,30.146,3.161
	c27.433,6.604,50.852,22.119,69.603,46.116c4.871,6.234,10.163,11.796,15.846,16.689L366.109,190.452z"/>
<g>
	<path style="fill:#F7AC16;" d="M336.709,282.127c1.947,1.939,3.944,3.794,5.994,5.558l23.406-97.233
		c-1.74-1.9-3.427-3.891-5.056-5.977c-14.137-18.09-29.624-30.436-44.343-38.869c-3.132,13.692-4.79,27.946-4.79,42.587
		C311.921,222.359,320.937,254.417,336.709,282.127z"/>
	<path style="fill:#F7AC16;" d="M508.351,121.396c-2.983-2.55-7.144-3.22-10.774-1.727c-0.314,0.13-31.83,12.834-65.647,4.695
		c-16.971-4.087-31.626-12.806-43.665-25.956l-22.155,92.046c12.037,13.152,26.692,21.87,43.662,25.956
		c33.818,8.139,65.331-4.565,65.648-4.695c3.628-1.492,7.79-0.823,10.773,1.728c2.98,2.555,4.278,6.565,3.36,10.379l22.157-92.046
		C512.628,127.96,511.329,123.949,508.351,121.396z"/>
</g>
<path style="fill:#999DA3;" d="M142.649,483.48l5.868-24.382l98.791-410.406l5.869-24.381c1.721-7.152,6.786-12.609,13.129-15.15
	c-2.368-1.837-5.141-3.224-8.244-3.972c-11.724-2.823-23.513,4.392-26.334,16.117l-5.87,24.38l-98.791,410.407l-5.868,24.382
	c-2.822,11.721,4.392,23.514,16.115,26.334c4.573,1.102,9.146,0.658,13.203-0.966C143.939,500.743,140.574,492.099,142.649,483.48z"
	/>
<g>
</g>
<g>
</g>
<g>
</g>
<g>
</g>
<g>
</g>
<g>
</g>
<g>
</g>
<g>
</g>
<g>
</g>
<g>
</g>
<g>
</g>
<g>
</g>
<g>
</g>
<g>
</g>
<g>
</g>
</svg>
