<?xml version="1.0" encoding="iso-8859-1"?>
<!-- Generator: Adobe Illustrator 19.0.0, SVG Export Plug-In . SVG Version: 6.00 Build 0)  -->
<svg version="1.1" id="Layer_1" xmlns="http://www.w3.org/2000/svg" xmlns:xlink="http://www.w3.org/1999/xlink" x="0px" y="0px"
	 viewBox="0 0 512.001 512.001" style="enable-background:new 0 0 512.001 512.001;" xml:space="preserve">
<path style="fill:#60677C;" d="M478.002,67.523c-0.088-1.494-0.835-2.873-2.038-3.764c-1.205-0.891-2.744-1.197-4.196-0.846
	c-16.835,4.1-34.138,6.178-51.427,6.178c-59.055,0-114.675-23.406-160.845-67.686c-1.953-1.873-5.035-1.873-6.99,0
	c-46.172,44.28-101.792,67.686-160.847,67.686c-17.291,0-34.593-2.078-51.424-6.178c-1.457-0.352-2.992-0.045-4.197,0.846
	c-1.203,0.891-1.95,2.27-2.038,3.764c-0.639,10.826-0.963,21.722-0.963,32.387c0,88.312,21.221,173.861,61.372,247.4
	c39.202,71.808,94.242,128.542,159.168,164.072c0.755,0.413,1.59,0.619,2.424,0.619c0.834,0,1.669-0.207,2.424-0.621
	c64.926-35.528,119.965-92.263,159.168-164.07c40.148-73.539,61.37-159.089,61.37-247.4
	C478.963,89.256,478.641,78.361,478.002,67.523z"/>
<path style="fill:#737B91;" d="M478.002,67.523c-0.088-1.494-0.835-2.873-2.038-3.764c-1.205-0.891-2.744-1.197-4.196-0.846
	c-16.835,4.1-34.138,6.178-51.427,6.178c-59.055,0-114.675-23.406-160.845-67.686c-1.953-1.873-5.035-1.873-6.99,0
	c-12.372,11.863-25.427,22.215-39.038,31.033c-40.636,49.48-65.034,112.801-65.034,181.826
	c0,114.947,67.659,214.078,165.316,259.785c41.036-33.422,76.34-76.365,103.843-126.74c40.148-73.539,61.37-159.089,61.37-247.4
	C478.963,89.256,478.641,78.361,478.002,67.523z"/>
<circle style="fill:#454B60;" cx="256" cy="249.911" r="134.35"/>
<path style="fill:#989DA0;" d="M291.939,426.834h-75.218c-4.184,0-7.575-3.391-7.575-7.574s3.392-7.574,7.575-7.574h75.218
	c4.184,0,7.574,3.391,7.574,7.574S296.122,426.834,291.939,426.834z"/>
<path style="fill:#4A94CC;" d="M364.102,249.886c0,59.457-48.201,107.654-107.654,107.654c-59.458,0-107.656-48.197-107.656-107.654
	c0-59.455,48.198-107.656,107.656-107.656C315.901,142.23,364.102,190.431,364.102,249.886z"/>
<path style="fill:#56ADE2;" d="M289.017,147.252c-29.115,19.269-48.322,52.308-48.322,89.834c0,48.104,31.55,88.831,75.084,102.634
	c29.116-19.269,48.323-52.305,48.323-89.834C364.102,201.785,332.55,161.056,289.017,147.252z"/>
<polygon style="fill:#6EDCF9;" points="235.625,286.35 214.809,241.377 256.448,205.318 256.448,205.318 298.084,241.377 
	277.264,286.35 "/>
<path style="fill:#A7F0FC;" d="M242.503,217.394c-1.182,6.386-1.809,12.965-1.809,19.692c0,17.757,4.31,34.501,11.923,49.264h24.647
	l20.82-44.974l-41.637-36.059L242.503,217.394z"/>
<g>
	<path style="fill:#6EDCF9;" d="M223.233,147.462l33.215,21.207l33.214-21.207c-10.462-3.393-21.624-5.232-33.214-5.232
		C244.855,142.23,233.692,144.069,223.233,147.462z"/>
	<path style="fill:#6EDCF9;" d="M167.444,189.308c-11.767,17.258-18.652,38.113-18.652,60.578c0,5.458,0.408,10.818,1.193,16.059
		l33.157-32.56L167.444,189.308z"/>
</g>
<path style="fill:#A7F0FC;" d="M329.75,233.384l33.158,32.56c0.785-5.24,1.193-10.601,1.193-16.059
	c0-22.465-6.885-43.32-18.655-60.578L329.75,233.384z"/>
<g>
	<path style="fill:#6EDCF9;" d="M243.028,356.711l-22.079-40.659l-47.014,2.978C190.975,339.34,215.371,353.271,243.028,356.711z"/>
	<path style="fill:#6EDCF9;" d="M281.228,354.668c23.222-5.467,43.541-18.457,58.25-36.254l-37.281-2.361L281.228,354.668z"/>
</g>
<path style="fill:#A7F0FC;" d="M302.197,316.052l-7.726,14.228c6.679,3.869,13.801,7.059,21.288,9.435
	c0.228-0.15,0.457-0.296,0.683-0.447c0.479-0.322,0.954-0.646,1.427-0.975c0.624-0.437,1.242-0.88,1.856-1.328
	c0.431-0.313,0.864-0.621,1.29-0.94c0.943-0.709,1.874-1.432,2.793-2.17c0.423-0.34,0.836-0.69,1.253-1.035
	c0.574-0.475,1.145-0.952,1.708-1.439c0.444-0.383,0.886-0.772,1.325-1.162c0.553-0.494,1.099-0.996,1.642-1.501
	c0.398-0.37,0.801-0.737,1.194-1.114c0.851-0.814,1.688-1.642,2.51-2.485c0.369-0.378,0.729-0.765,1.092-1.149
	c0.523-0.55,1.043-1.103,1.554-1.664c0.389-0.428,0.774-0.859,1.157-1.293c0.497-0.564,0.986-1.137,1.471-1.711
	c0.25-0.295,0.502-0.59,0.749-0.889L302.197,316.052z"/>
<g>
</g>
<g>
</g>
<g>
</g>
<g>
</g>
<g>
</g>
<g>
</g>
<g>
</g>
<g>
</g>
<g>
</g>
<g>
</g>
<g>
</g>
<g>
</g>
<g>
</g>
<g>
</g>
<g>
</g>
</svg>
