<?xml version="1.0" encoding="iso-8859-1"?>
<!-- Generator: Adobe Illustrator 19.0.0, SVG Export Plug-In . SVG Version: 6.00 Build 0)  -->
<svg version="1.1" id="Layer_1" xmlns="http://www.w3.org/2000/svg" xmlns:xlink="http://www.w3.org/1999/xlink" x="0px" y="0px"
	 viewBox="0 0 512 512" style="enable-background:new 0 0 512 512;" xml:space="preserve">
<path style="fill:#AFEEF9;" d="M313.082,49.329H198.918c-7.937,0-14.371,6.433-14.371,14.37v20.889h142.904V63.699
	C327.451,55.764,321.018,49.329,313.082,49.329z"/>
<path style="fill:#6EDCF9;" d="M220.042,49.329h-21.124c-7.937,0-14.371,6.433-14.371,14.37v20.889h21.124V63.699
	C205.671,55.764,212.106,49.329,220.042,49.329z"/>
<path style="fill:#2EA8BC;" d="M505.507,182.991L371.338,84.172c-2.886-2.127-6.252-3.119-9.581-3.091
	c-0.124-0.004-0.247-0.019-0.374-0.019h-21.25h-6.692h-6.785H185.35h-6.787h-11.67h-16.271c-0.129,0-0.25,0.015-0.377,0.019
	c-3.329-0.028-6.692,0.964-9.58,3.091L6.494,182.991c-7.096,5.225-8.609,15.212-3.384,22.307l39.947,54.237
	c5.225,7.096,15.213,8.612,22.307,3.386l70.884-52.208v237.589c0,7.937,6.432,14.369,14.371,14.369h27.941h154.878h27.943
	c7.938,0,14.369-6.433,14.369-14.369V210.713l70.883,52.208c7.096,5.227,17.082,3.71,22.307-3.386l39.948-54.237
	C514.117,198.204,512.601,188.216,505.507,182.991z"/>
<path style="fill:#49B5CE;" d="M505.507,182.991L371.338,84.172c-2.886-2.127-6.252-3.119-9.581-3.091
	c-0.124-0.004-0.247-0.019-0.374-0.019h-21.25h-6.692h-6.785H205.54c-11.352,30.576-17.565,63.647-17.565,98.175
	c0,122.715,78.365,227.112,187.776,265.919V210.713l70.883,52.208c7.096,5.227,17.082,3.71,22.307-3.386l39.948-54.237
	C514.117,198.204,512.601,188.216,505.507,182.991z"/>
<g>
	<path style="fill:#6EDCF9;" d="M505.507,182.395L371.338,83.575c-0.671-0.495-1.371-0.921-2.087-1.294l-8.571,11.631
		c-4.708,6.39-3.346,15.386,3.043,20.094L501.12,215.25l7.769-10.548C514.117,197.607,512.601,187.62,505.507,182.395z"/>
	<path style="fill:#6EDCF9;" d="M6.494,182.395l134.169-98.819c0.673-0.495,1.37-0.921,2.087-1.294l8.57,11.631
		c4.71,6.39,3.346,15.386-3.044,20.094L10.879,215.251L3.11,204.703C-2.115,197.607-0.602,187.62,6.494,182.395z"/>
</g>
<g>
	<path style="fill:#F5F5F5;" d="M241.738,277.528v16.562h-58.841v-16.562h21.872v-58.387c-0.924,1.338-2.363,2.734-4.314,4.182
		c-1.953,1.451-4.108,2.79-6.469,4.015c-2.363,1.229-4.829,2.258-7.395,3.095c-2.568,0.837-4.827,1.255-6.777,1.255v-17.231
		c2.053,0,4.44-0.67,7.163-2.008c2.719-1.338,5.338-2.899,7.856-4.685c2.514-1.782,4.722-3.568,6.623-5.353
		c1.898-1.783,3.003-3.067,3.312-3.847h17.406v78.963h19.563V277.528z"/>
	<path style="fill:#F5F5F5;" d="M332.157,245.072c0,7.36-1,14.136-3.003,20.326c-2.002,6.19-4.774,11.543-8.318,16.06
		c-3.542,4.517-7.7,8.031-12.477,10.539c-4.775,2.51-9.987,3.764-15.633,3.764c-5.65,0-10.887-1.254-15.714-3.764
		c-4.826-2.508-8.986-6.023-12.477-10.539c-3.492-4.517-6.237-9.87-8.24-16.06s-3.003-12.966-3.003-20.326
		c0-7.361,1.001-14.137,3.003-20.327c2.003-6.19,4.748-11.543,8.24-16.06c3.49-4.518,7.651-8.057,12.477-10.624
		c4.827-2.564,10.064-3.848,15.714-3.848c5.646,0,10.859,1.284,15.633,3.848c4.776,2.567,8.935,6.106,12.477,10.624
		c3.545,4.517,6.316,9.87,8.318,16.06C331.158,230.936,332.157,237.71,332.157,245.072z M314.905,245.072
		c0-5.02-0.539-9.591-1.618-13.719c-1.076-4.124-2.618-7.695-4.621-10.707c-2.001-3.011-4.366-5.324-7.085-6.942
		c-2.721-1.616-5.676-2.426-8.856-2.426c-3.39,0-6.446,0.81-9.165,2.426c-2.722,1.617-5.084,3.931-7.086,6.942
		c-2.003,3.012-3.544,6.582-4.621,10.707c-1.079,4.127-1.618,8.699-1.618,13.719c0,5.019,0.539,9.593,1.618,13.718
		c1.077,4.126,2.618,7.669,4.621,10.624c2.002,2.954,4.364,5.242,7.086,6.858c2.719,1.618,5.777,2.426,9.165,2.426
		c3.181,0,6.135-0.808,8.856-2.426c2.719-1.614,5.084-3.902,7.085-6.858c2.003-2.954,3.545-6.497,4.621-10.624
		C314.366,254.665,314.905,250.091,314.905,245.072z"/>
	<path style="fill:#F5F5F5;" d="M340.838,162.239c-1.294,0-2.605-0.325-3.81-1.01c-24.581-13.963-52.602-21.344-81.029-21.344
		c-28.425,0-56.445,7.38-81.028,21.344c-3.712,2.108-8.43,0.809-10.537-2.903c-2.109-3.711-0.81-8.43,2.902-10.538
		c26.904-15.283,57.565-23.36,88.662-23.36c31.098,0,61.758,8.078,88.663,23.36c3.712,2.108,5.012,6.827,2.904,10.538
		C346.142,160.833,343.53,162.239,340.838,162.239z"/>
</g>
<g>
</g>
<g>
</g>
<g>
</g>
<g>
</g>
<g>
</g>
<g>
</g>
<g>
</g>
<g>
</g>
<g>
</g>
<g>
</g>
<g>
</g>
<g>
</g>
<g>
</g>
<g>
</g>
<g>
</g>
</svg>
